<mxfile host="app.diagrams.net" modified="2024-03-09T17:27:42.919Z" agent="Mozilla/5.0 (Windows NT 10.0; Win64; x64) AppleWebKit/537.36 (KHTML, like Gecko) Chrome/122.0.0.0 Safari/537.36" etag="UBKyd6PSpUuyG2RRPNR1" version="24.0.4" type="github">
  <diagram name="Strona-1" id="KzcGPtAOBDwFxc_ya4PI">
    <mxGraphModel dx="1434" dy="900" grid="1" gridSize="10" guides="1" tooltips="1" connect="1" arrows="1" fold="1" page="1" pageScale="1" pageWidth="827" pageHeight="1169" math="0" shadow="0">
      <root>
        <mxCell id="0" />
        <mxCell id="1" parent="0" />
        <mxCell id="gUT56NK3SuksapCavz_R-1" value="App" style="whiteSpace=wrap;html=1;aspect=fixed;" parent="1" vertex="1">
          <mxGeometry x="374" y="90" width="80" height="80" as="geometry" />
        </mxCell>
        <mxCell id="gUT56NK3SuksapCavz_R-2" value="" style="endArrow=none;html=1;rounded=0;" parent="1" source="gUT56NK3SuksapCavz_R-1" target="gUT56NK3SuksapCavz_R-3" edge="1">
          <mxGeometry width="50" height="50" relative="1" as="geometry">
            <mxPoint x="324" y="220" as="sourcePoint" />
            <mxPoint x="374" y="170" as="targetPoint" />
          </mxGeometry>
        </mxCell>
        <mxCell id="gUT56NK3SuksapCavz_R-3" value="AddItemPopup" style="whiteSpace=wrap;html=1;aspect=fixed;" parent="1" vertex="1">
          <mxGeometry x="210" y="230" width="80" height="80" as="geometry" />
        </mxCell>
        <mxCell id="gUT56NK3SuksapCavz_R-4" value="List" style="whiteSpace=wrap;html=1;aspect=fixed;" parent="1" vertex="1">
          <mxGeometry x="500" y="230" width="80" height="80" as="geometry" />
        </mxCell>
        <mxCell id="gUT56NK3SuksapCavz_R-5" value="" style="endArrow=none;html=1;rounded=0;" parent="1" source="gUT56NK3SuksapCavz_R-4" target="gUT56NK3SuksapCavz_R-1" edge="1">
          <mxGeometry width="50" height="50" relative="1" as="geometry">
            <mxPoint x="390" y="320" as="sourcePoint" />
            <mxPoint x="440" y="270" as="targetPoint" />
          </mxGeometry>
        </mxCell>
        <mxCell id="gUT56NK3SuksapCavz_R-6" value="" style="endArrow=none;html=1;rounded=0;entryX=0.5;entryY=1;entryDx=0;entryDy=0;exitX=0.5;exitY=0;exitDx=0;exitDy=0;" parent="1" source="gUT56NK3SuksapCavz_R-7" target="gUT56NK3SuksapCavz_R-4" edge="1">
          <mxGeometry width="50" height="50" relative="1" as="geometry">
            <mxPoint x="540" y="380" as="sourcePoint" />
            <mxPoint x="500" y="270" as="targetPoint" />
          </mxGeometry>
        </mxCell>
        <mxCell id="gUT56NK3SuksapCavz_R-7" value="SingleTask" style="whiteSpace=wrap;html=1;aspect=fixed;" parent="1" vertex="1">
          <mxGeometry x="500" y="410" width="80" height="80" as="geometry" />
        </mxCell>
        <mxCell id="gUT56NK3SuksapCavz_R-8" value="render:bool,&lt;div&gt;addTask:function&lt;/div&gt;" style="text;html=1;align=center;verticalAlign=middle;whiteSpace=wrap;rounded=0;" parent="1" vertex="1">
          <mxGeometry x="240" y="160" width="110" height="30" as="geometry" />
        </mxCell>
        <mxCell id="gUT56NK3SuksapCavz_R-9" value="tasks: Task[],&lt;div&gt;toggleTask: function&lt;/div&gt;&lt;div&gt;deleteTask:&lt;/div&gt;&lt;div&gt;function&lt;/div&gt;" style="text;html=1;align=center;verticalAlign=middle;whiteSpace=wrap;rounded=0;" parent="1" vertex="1">
          <mxGeometry x="440" y="140" width="220" height="110" as="geometry" />
        </mxCell>
        <mxCell id="gUT56NK3SuksapCavz_R-10" value="task: Task,&lt;div&gt;toggleTask: function&lt;/div&gt;&lt;div&gt;deleteTask:&lt;/div&gt;&lt;div&gt;function&lt;/div&gt;" style="text;html=1;align=center;verticalAlign=middle;whiteSpace=wrap;rounded=0;" parent="1" vertex="1">
          <mxGeometry x="490" y="310" width="220" height="110" as="geometry" />
        </mxCell>
        <mxCell id="59Ix4v-ZJ_YYprY-y30o-1" value="" style="endArrow=none;html=1;rounded=0;exitX=0.5;exitY=0;exitDx=0;exitDy=0;" edge="1" parent="1" source="59Ix4v-ZJ_YYprY-y30o-2" target="gUT56NK3SuksapCavz_R-1">
          <mxGeometry width="50" height="50" relative="1" as="geometry">
            <mxPoint x="290" y="380" as="sourcePoint" />
            <mxPoint x="440" y="270" as="targetPoint" />
          </mxGeometry>
        </mxCell>
        <mxCell id="59Ix4v-ZJ_YYprY-y30o-2" value="Navigation" style="whiteSpace=wrap;html=1;aspect=fixed;" vertex="1" parent="1">
          <mxGeometry x="240" y="410" width="80" height="80" as="geometry" />
        </mxCell>
        <mxCell id="59Ix4v-ZJ_YYprY-y30o-3" value="searchText: string&lt;div&gt;setSearchText:function,&lt;/div&gt;&lt;div&gt;filterOutFinished:boolean,&lt;/div&gt;&lt;div&gt;setFilterOutFinished: function,&lt;/div&gt;&lt;div&gt;setSearchButtonClicked: function,&lt;/div&gt;&lt;div&gt;setIsPopupOpen: function&lt;/div&gt;" style="text;html=1;align=center;verticalAlign=middle;whiteSpace=wrap;rounded=0;" vertex="1" parent="1">
          <mxGeometry x="270" y="240" width="220" height="170" as="geometry" />
        </mxCell>
        <mxCell id="59Ix4v-ZJ_YYprY-y30o-4" value="" style="endArrow=none;html=1;rounded=0;" edge="1" parent="1" target="gUT56NK3SuksapCavz_R-1">
          <mxGeometry width="50" height="50" relative="1" as="geometry">
            <mxPoint x="650" y="610" as="sourcePoint" />
            <mxPoint x="620" y="50" as="targetPoint" />
            <Array as="points">
              <mxPoint x="750" y="460" />
              <mxPoint x="730" y="270" />
              <mxPoint x="730" y="50" />
            </Array>
          </mxGeometry>
        </mxCell>
        <mxCell id="59Ix4v-ZJ_YYprY-y30o-5" value="BottomBar" style="whiteSpace=wrap;html=1;aspect=fixed;" vertex="1" parent="1">
          <mxGeometry x="600" y="610" width="80" height="80" as="geometry" />
        </mxCell>
        <mxCell id="59Ix4v-ZJ_YYprY-y30o-6" value="activeSort:string,&lt;div&gt;setActiveSort:function,&lt;/div&gt;&lt;div&gt;pageSize: number,&lt;/div&gt;&lt;div&gt;enablePagination:boolean,&lt;/div&gt;&lt;div&gt;setPageSize: function,&lt;/div&gt;&lt;div&gt;currentPage: number,&lt;/div&gt;&lt;div&gt;setCurrentPage: function,&lt;/div&gt;&lt;div&gt;pages: number&lt;/div&gt;" style="text;html=1;align=center;verticalAlign=middle;whiteSpace=wrap;rounded=0;" vertex="1" parent="1">
          <mxGeometry x="700" y="160" width="210" height="190" as="geometry" />
        </mxCell>
      </root>
    </mxGraphModel>
  </diagram>
</mxfile>
